<?xml version="1.0" encoding="UTF-8"?>
<svg width="213px" height="40px" viewBox="0 0 213 40" version="1.1" xmlns="http://www.w3.org/2000/svg" xmlns:xlink="http://www.w3.org/1999/xlink">
    <!-- Generator: Sketch 49.3 (51167) - http://www.bohemiancoding.com/sketch -->
    <title>Logo@1x</title>
    <desc>Created with Sketch.</desc>
    <defs>
        <polygon id="path-1" points="0.318365951 0.258959368 2.68870342 0.258959368 2.68870342 10.3702264 0.318365951 10.3702264"></polygon>
        <polygon id="path-3" points="0 39.7772256 212.685936 39.7772256 212.685936 0 0 0"></polygon>
    </defs>
    <g id="2018-Atlas-Split-LP" stroke="none" stroke-width="1" fill="none" fill-rule="evenodd">
        <g id="D---Atlas-Split-LP---4" transform="translate(-40.000000, -4540.000000)">
            <g id="5" transform="translate(39.000000, 4529.000000)">
                <g id="Top-Level">
                    <g id="Logo" transform="translate(1.000000, 11.000000)">
                        <g id="Group-3" transform="translate(7.777670, 29.406999)">
                            <mask id="mask-2" fill="white">
                                <use xlink:href="#path-1"></use>
                            </mask>
                            <g id="Clip-2"></g>
                            <path d="M1.2072425,0.296366256 C0.985023363,2.92595938 0.68873118,4.81482205 0.42947552,5.48147946 L0.318365951,5.40740642 C1.05909641,7.11071611 0.985023363,9.99993526 0.985023363,9.99993526 L2.05908253,10.3703005 C2.05908253,10.3703005 1.83686339,7.55552475 2.13315557,6.18480303 C2.23130236,5.78814187 2.42167009,5.4203692 2.68870342,5.11111423 L2.57759385,5.11111423 C1.54057121,4.62963944 1.24427902,2.37041154 1.17020598,0.258959368 L1.2072425,0.296366256 Z" id="Fill-1" fill="#C2BFBF" mask="url(#mask-2)"></path>
                        </g>
                        <path d="M17.4664242,15.7775958 C15.3923789,6.55550159 10.4294849,3.55554324 9.91097353,2.3703745 C9.44764663,1.65519925 9.0506151,0.898913448 8.7258048,0.111146606 L8.7258048,3.7037037e-05 C8.65173175,0.814840541 8.65173175,1.14816925 7.87396477,1.96297275 C7.09619779,2.77777626 0.503696712,8.03696251 0.0222219137,18.481262 C-0.459252884,28.2218675 7.05916127,34.0366016 8.09618391,34.777332 L8.20729348,34.8514051 C8.50358566,34.1847477 8.79987784,32.295885 8.98506046,29.6662919 C9.02209698,31.7773737 9.31838916,34.0366016 10.3924483,34.5180764 L10.4665214,34.5180764 C10.9209595,34.1877106 11.3539165,33.8291971 11.7627997,33.4440172 L11.7998362,33.4440172 C14.2812832,31.1107163 19.0960312,25.2959822 17.4664242,15.7775958" id="Fill-4" fill="#68B245"></path>
                        <path d="M17.4664242,15.7775958 C15.3923789,6.55550159 10.4294849,3.55554324 9.91097353,2.3703745 C9.44764663,1.65519925 9.0506151,0.898913447 8.7258048,0.111146605 C9.20727959,2.0370458 9.13320655,17.4072028 9.20727959,19.2590289 C9.31468551,22.7297215 9.24061247,26.203377 8.98506046,29.6662919 C9.02209698,31.7773737 9.31838916,34.0366016 10.3924483,34.5180764 L10.4665214,34.5180764 C10.9209595,34.1877106 11.3539165,33.8291971 11.7627997,33.4440172 L11.7998362,33.4440172 C14.2812832,31.1107163 19.0960312,25.2959822 17.4664242,15.7775958" id="Fill-6" fill="#599642"></path>
                        <path d="M119.687227,29.8885481 C120.316848,30.406689 121.613127,30.6292785 122.761259,30.6292785 C123.909021,30.6292785 125.687144,30.3700229 127.094532,29.0737446 C128.50192,27.7774663 129.538943,25.7404575 129.538943,22.5553165 C129.538943,19.3701756 128.353403,16.9998381 125.983436,15.5183772 C124.613085,14.6665371 122.872368,14.3332084 120.872396,14.3332084 C120.35907,14.3024681 119.844633,14.3654302 119.353899,14.5183911 C119.221678,14.6343154 119.130568,14.7906095 119.094273,14.9628293 C119.02057,15.5183772 119.02057,19.6664677 119.02057,22.1479148 C119.02057,24.6293618 119.02057,28.2219045 119.094273,28.6293063 C119.124643,29.1274475 119.351306,29.5937373 119.724264,29.9255846 M113.538794,12.9628571 L116.983561,13.0369301 C118.723907,13.0369301 119.909447,12.9628571 123.131624,12.9628571 C126.353802,12.9628571 128.131555,13.7035875 129.761162,15.1109754 C131.390769,16.5183633 132.76112,19.1849929 132.76112,22.0734714 C132.76112,26.1848958 130.872257,28.5548629 129.020431,29.8885481 C127.168605,31.2218629 124.724195,32.0733325 121.242761,32.0733325 L113.576201,31.9996299 L113.538794,31.9996299 C113.428055,31.7403742 113.761384,30.8144611 113.983603,30.7770542 C114.414708,30.7603878 114.839887,30.6722409 115.242845,30.5181689 C115.798393,30.2959498 115.946168,29.9996576 115.983575,28.9996715 C116.057648,27.1108088 116.057648,24.8512106 116.057648,22.2960609 C116.057648,20.4812712 116.094685,16.8887285 116.020612,15.7776328 C115.946168,14.6665371 115.539137,14.5924641 114.724333,14.4072815 L112.983246,14.1480258 C112.909544,13.9628432 113.391019,13.1480397 113.538794,12.9628571" id="Fill-8" fill="#47474A"></path>
                        <path d="M140.390422,14.5183911 C140.279312,14.5554276 140.131536,14.8517198 140.131536,14.9998659 C140.094129,16.1109615 140.057463,18.9627738 140.057463,20.9257095 C140.071537,21.0008937 140.130055,21.0597817 140.205239,21.0738556 L142.42743,21.1475583 C143.612599,21.1475583 144.279256,20.9997826 144.649622,20.8145999 C145.649608,20.3331251 146.094046,19.259066 146.094046,18.1109338 C146.094046,15.4443041 144.24222,14.444318 141.501517,14.444318 C141.130041,14.4435773 140.758935,14.4683917 140.390422,14.5183911 M147.390324,26.7030367 C147.390324,24.0367774 145.427759,22.51828 141.79818,22.51828 C141.278928,22.5016136 140.759676,22.5138356 140.242646,22.5553165 C140.168202,22.592353 140.057463,22.6290192 140.057463,22.7034626 C140.057463,24.6293618 140.020056,27.7033932 140.131536,28.9252281 C140.205239,29.4441098 140.575604,30.1848402 141.020042,30.3700229 C141.464481,30.5552055 142.612613,30.7033516 143.39075,30.7033516 C145.501832,30.7033516 147.390324,29.5181828 147.390324,26.7030367 M134.834943,13.0369301 C135.094199,13.0369301 135.946039,13.1110032 138.020454,13.1110032 L143.501489,13.0369301 C145.872197,13.0369301 149.131411,13.8887702 149.131411,17.4072398 C149.131411,19.1479564 147.909206,20.5553443 146.316265,21.2220017 C146.205156,21.2590382 146.205156,21.2960747 146.316265,21.3327409 C148.61253,21.9256956 150.612872,23.296047 150.612872,25.9997132 C150.612872,28.7033793 148.982895,30.2589133 146.612928,31.2959359 C145.168133,31.9255568 143.39075,32.147776 141.57559,32.147776 C139.761171,32.147776 136.46455,31.9996299 134.427541,32.0366664 C134.205693,31.9625933 134.612724,30.9622369 134.797907,30.8144611 C135.274567,30.7985354 135.747153,30.724092 136.205294,30.5918716 C136.946025,30.406689 137.020098,30.1848402 137.131207,29.0737446 C137.242317,27.9626489 137.205281,24.7404714 137.205281,22.3330974 C137.205281,19.0368468 137.242317,16.8146555 137.205281,15.7405963 C137.168614,14.6665371 136.871952,14.6295006 136.279367,14.444318 L134.427541,14.1850623 C134.279395,14.0369163 134.76124,13.1110032 134.909016,12.9998936" id="Fill-10" fill="#47474A"></path>
                        <path d="M24.3921429,32.0734807 C24.3047367,31.876076 24.2665891,31.6597827 24.2810333,31.4442302 C24.2799222,31.3005285 24.3184402,31.1594193 24.3921429,31.036458 L25.5773116,30.7772024 C26.1328595,30.6294267 26.3180421,30.3331345 26.3550786,29.6661067 C26.4291516,28.0368701 26.4661882,24.9628387 26.4291516,22.7773134 L26.4291516,22.7032404 C26.4724844,22.4102815 26.3602637,22.1154708 26.1328595,21.9258438 C25.6265702,21.6139963 25.0776889,21.3769625 24.5032524,21.2217795 C24.2439968,21.1477064 24.0958507,20.9999307 24.0958507,20.8514143 C24.0958507,20.7036385 24.2810333,20.5184559 24.614362,20.4443829 C26.0324905,20.2395709 27.4235823,19.8795759 28.7624526,19.3699533 C28.8576364,19.497359 28.8976359,19.6577271 28.8735621,19.8143916 L28.8735621,20.1106838 C28.8365256,20.406976 28.8365256,20.7773412 28.8365256,21.1106699 C28.8546735,21.2188166 28.9491167,21.297334 29.0587448,21.2958525 L29.2068909,21.2217795 C30.9476074,19.8514281 32.5031414,19.3699533 33.3179449,19.3699533 C34.1327484,19.3699533 35.6882824,19.9995742 36.4660493,21.2958525 C36.5045673,21.3625183 36.5745664,21.4043695 36.651232,21.4069621 L36.8364146,21.332889 C38.4289851,20.1106838 40.0215555,19.3699533 41.0956147,19.3699533 C43.6140983,19.3699533 45.1325957,21.2591864 45.1325957,24.4072908 L45.1325957,27.5553953 L45.1325957,29.9994354 C45.1796321,30.2757279 45.3596296,30.5112802 45.6140705,30.6294267 C46.1151747,30.8164611 46.63776,30.9409038 47.1696045,30.9997919 L47.206641,30.9997919 C47.2366406,31.3520092 47.1859005,31.7068191 47.0584949,32.0364442 L46.354801,32.0364442 L44.2807557,31.9623711 C42.6141121,31.9623711 41.7252356,31.999778 40.9104321,32.0364442 C40.8385812,31.6949674 40.8385812,31.3412686 40.9104321,30.9997919 L41.9474547,30.7772024 C42.4659661,30.5920198 42.6511487,30.3698006 42.6511487,29.6661067 C42.6511487,28.9627831 42.7622582,24.7402492 42.5770756,23.6665604 C42.422263,22.2665798 41.2059835,21.2288164 39.7993364,21.2958525 C38.7841653,21.3562221 37.813438,21.7317724 37.0215972,22.3702821 C36.9549314,22.4402811 36.9153024,22.532502 36.9104876,22.6291673 C37.0204861,23.3643423 37.0575226,24.1087764 37.0215972,24.8513587 L37.0215972,26.6294822 L37.0215972,29.8886962 C36.996042,30.300172 37.2823343,30.6660928 37.6882546,30.7401659 L38.0956564,30.8512754 L38.9474964,31.036458 C39.0104585,31.2923804 39.0104585,31.558673 38.9474964,31.8145954 C38.931941,31.9086682 38.8937934,31.9975558 38.8363868,32.0734807 L35.5771728,31.999778 L32.614251,31.999778 C32.5524,31.8342248 32.5272151,31.6571902 32.5401779,31.4808963 C32.5327706,31.3134912 32.5712886,31.1471973 32.6512875,30.9997919 L33.0216527,30.9253485 L33.9105293,30.7401659 C34.3549675,30.5920198 34.5401502,30.3331345 34.5771867,29.7775866 C34.6512597,28.4072353 34.7253328,24.5184004 34.5401502,23.5550804 C34.2068214,21.9999168 33.3179449,21.1851133 31.8735205,21.1851133 C30.8642753,21.2417792 29.8953998,21.6032557 29.0957813,22.2217656 C28.9257836,22.3865781 28.8317109,22.6147231 28.8365256,22.8517569 L28.8365256,24.4809935 C28.8365256,26.4442996 28.8365256,28.8883397 28.8735621,29.9253624 C28.8698585,30.3557268 29.1876319,30.7212772 29.6142926,30.7772024 L30.2439135,30.8886823 L30.7253883,30.962385 C30.7846467,31.3094172 30.7590915,31.6645975 30.6513152,31.999778 L29.6513291,31.999778 L27.5402473,31.925705 L25.3550925,31.999778 L24.3921429,31.999778" id="Fill-12" fill="#47474A"></path>
                        <path d="M55.2805659,20.7035645 C54.7572399,20.6887498 54.2413211,20.8305997 53.799105,21.1109662 C52.7250459,21.7772533 52.169498,23.0735316 52.169498,24.9627646 C52.169498,28.5182708 53.9472511,31.036384 56.5027712,31.036384 C57.1942431,31.0608281 57.8686782,30.8223129 58.3916339,30.3700969 C59.1694008,29.7401057 59.6138391,28.4071612 59.6138391,26.5920012 C59.6138391,23.0735316 57.8731225,20.7035645 55.2805659,20.7035645 M55.7990773,32.3700692 C51.1695119,32.3700692 49.5399049,28.9627091 49.5399049,25.8146046 C49.4506469,23.7361149 50.4643365,21.7654016 52.2065345,20.6294914 C53.4554061,19.8591317 54.8876084,19.4372857 56.3546251,19.4072861 C59.8730948,19.4072861 62.3545418,21.9624359 62.3545418,25.5920151 C62.3545418,28.0734621 61.3545557,29.9997317 59.5027296,31.2215666 C58.369412,31.9067423 57.084615,32.3011812 55.7620407,32.3700692" id="Fill-14" fill="#47474A"></path>
                        <path d="M102.428171,20.7404528 C101.904845,20.7256382 101.388926,20.8678585 100.94671,21.1478546 C99.8726506,21.814512 99.3171028,23.1107903 99.3171028,24.999653 C99.3171028,28.5551592 101.094856,31.0736427 103.650376,31.0736427 C104.346663,31.0873462 105.021838,30.8358682 105.539239,30.3699488 C106.317006,29.7403279 106.761444,28.4070131 106.761444,26.5922234 C106.761444,23.0737538 105.020727,20.7034163 102.428171,20.7034163 M102.909646,32.369921 C98.2800801,32.369921 96.6504731,28.9625609 96.6504731,25.8144565 C96.5823259,23.7418926 97.6093487,21.7867346 99.3541393,20.6663798 C100.603011,19.8960201 102.035213,19.4741741 103.50223,19.4441745 C107.0207,19.4441745 109.502147,21.9996946 109.502147,25.6292739 C109.502147,28.1107209 108.50216,30.0366201 106.650334,31.2588253 C105.517017,31.944001 104.23222,32.3380696 102.909646,32.4069575" id="Fill-16" fill="#47474A"></path>
                        <path d="M86.8357575,20.5552702 C85.3913331,20.5552702 84.5024566,21.6663659 84.5024566,23.4070825 C84.5024566,25.1477991 85.2802236,27.2218443 87.5394515,27.2218443 C88.0598146,27.210363 88.5586966,27.0133287 88.9468393,26.6662965 C89.4653507,26.1848217 89.7986794,25.2218721 89.7986794,24.1478129 C89.7986794,21.888585 88.6875837,20.5182337 86.8357575,20.5182337 M86.6505749,32.5921402 C86.2487286,32.5902883 85.8531786,32.6925091 85.5024427,32.8884323 C84.391347,33.6291628 83.8357992,34.3328567 83.8357992,35.1846968 C83.8298733,35.9539453 84.1869054,36.6813427 84.7987488,37.1476325 C85.5765158,37.8142899 86.6505749,38.1476186 88.0579628,38.1476186 C90.835702,38.1476186 92.0579073,36.6661577 92.0579073,35.1846968 C92.0579073,33.7032358 91.5393959,33.4810167 90.5023733,33.073615 C89.2520203,32.710657 87.9520383,32.5484371 86.6505749,32.5921402 M86.8357575,39.666116 C85.169114,39.666116 83.9839453,39.3327873 82.9469226,38.5179838 C82.0898975,37.8742891 81.5610159,36.8846732 81.5024982,35.8143177 C81.5165721,35.3054358 81.7136064,34.8187759 82.0580461,34.4439663 C82.8206281,33.6854583 83.6650608,33.0150972 84.5765296,32.4439941 C84.6480101,32.404365 84.6739357,32.3143662 84.6343066,32.2428857 C84.6209735,32.2180713 84.6009737,32.1984419 84.5765296,32.1847384 C83.3172879,31.7032636 82.9098861,30.8884601 82.7987765,30.4440218 L82.7987765,30.3699488 C82.7309997,30.1943957 82.7924803,29.9955095 82.9469226,29.888474 L83.7246896,29.4069992 C84.15098,29.1651507 84.5594928,28.8929323 84.9468949,28.5921957 C85.0343011,28.5388631 85.0617081,28.4247906 85.0083755,28.3377548 C84.9857832,28.3007182 84.9509689,28.2729409 84.9098583,28.258867 C83.0209957,27.6292461 82.0580461,26.2218582 82.0580461,24.0737399 C82.0484166,22.7222772 82.6980372,21.4508133 83.7987627,20.6663798 C84.956154,19.8893535 86.2968761,19.4293599 87.6875976,19.333065 L87.7616706,19.333065 C88.7827675,19.3649164 89.7883091,19.5912095 90.7245924,19.9997224 C91.2927327,20.2112009 91.896428,20.3119403 92.5023455,20.2960146 C93.2052987,20.3541619 93.8975114,20.0963877 94.3912082,19.5923206 C94.4604665,19.7693552 94.4978734,19.9575007 94.5023178,20.1478685 C94.531947,20.5930475 94.4149116,21.0352636 94.1689891,21.4071102 C93.8678821,21.7437722 93.4352956,21.9330289 92.9838203,21.9256216 L92.8356742,21.9256216 L92.1319803,21.814512 L92.0208707,21.814512 C91.9838342,21.8515485 92.0208707,21.9256216 92.0208707,21.9996946 C92.1104991,22.3896892 92.1723501,22.7856096 92.2060534,23.1848633 C92.2060534,25.4440912 91.3171768,26.4070408 90.3542272,27.1107348 C89.4253512,27.8033177 88.3231443,28.2266452 87.1690862,28.33294 L86.4283558,28.33294 C86.2061366,28.4070131 85.6876253,28.6662687 85.6876253,29.110707 C85.6876253,29.5551453 85.946881,29.9995836 87.0950132,30.1106931 L87.8357437,30.1106931 C89.3912776,30.2218027 91.3171768,30.3699488 92.2060534,30.666241 C93.4464065,31.0984572 94.268247,32.2788112 94.2430621,33.5921263 C94.2430621,35.5920985 92.7986377,37.4809612 90.4283003,38.6661299 C89.2957234,39.208715 88.0546295,39.4876 86.798721,39.4809334" id="Fill-18" fill="#47474A"></path>
                        <path d="M79.7617446,30.9996437 C79.1610122,30.9474222 78.5732426,30.7974243 78.021028,30.5552055 C77.9025112,30.4337257 77.8247345,30.2785426 77.7988089,30.1107672 C77.7247359,29.1848541 77.7247359,26.4441514 77.7247359,24.6293618 C77.7247359,22.8142018 77.4654802,21.8882887 76.8728958,20.9623757 C76.1684612,19.9197976 74.9829221,19.3061024 73.7247914,19.333139 C72.5396227,19.333139 70.9100156,20.1479425 69.6137373,21.2960747 C69.5767008,21.3327409 69.3915182,21.5179235 69.3915182,21.2220017 C69.3915182,20.9257095 69.4285547,20.2960886 69.4655913,19.9257234 C69.4929983,19.7216522 69.4244807,19.5168402 69.2804086,19.3701756 C67.9326496,19.8994275 66.5282246,20.2723853 65.0952816,20.4812712 C64.4286241,20.5920104 64.280478,21.2220017 64.984172,21.4442208 C65.5467568,21.5994039 66.0830456,21.836808 66.5767425,22.1479148 C66.7967394,22.3416158 66.8959973,22.6386487 66.8359981,22.9256818 C66.8730347,24.9626905 66.8730347,28.110795 66.7619251,29.814475 C66.7248886,30.4811324 66.5397059,30.7403881 66.0582311,30.8514977 L66.0952677,30.8514977 L64.9471355,31.0737168 C64.7923228,31.4663039 64.7923228,31.9029645 64.9471355,32.295922 C65.2434276,32.295922 66.8359981,32.221849 68.1322764,32.221849 C69.4285547,32.221849 70.8359426,32.295922 71.3174174,32.295922 C71.5051926,31.9166681 71.5444513,31.4807482 71.428527,31.0737168 C71.0037181,31.0529763 70.5818721,30.9911253 70.1692852,30.8885342 C69.6878104,30.7770542 69.5396643,30.5181689 69.5396643,29.9626211 C69.4655913,28.5181967 69.4655913,25.4812018 69.4655913,23.4071566 C69.4144809,23.0401246 69.5378125,22.6701297 69.79892,22.4071704 C70.5085397,21.8205119 71.3970459,21.4934794 72.3174035,21.4812574 C73.0033199,21.450517 73.6759032,21.674588 74.2062662,22.1108782 C74.6962594,22.5501314 75.0006996,23.1590118 75.0581062,23.8145583 C75.1692158,24.9626905 75.1321793,27.2959915 75.1321793,29.2955933 C75.1321793,30.406689 75.0581062,30.666315 74.6507045,30.7770542 C74.2440434,30.9174227 73.820716,31.0048289 73.3914627,31.0366803 C73.2062801,31.2218629 73.2803531,32.0733325 73.3914627,32.2585152 C74.2062662,32.2585152 75.1321793,32.1848125 76.4654941,32.1848125 C77.7988089,32.1848125 79.2432333,32.2585152 79.6506351,32.2585152 C79.8384102,31.8792612 79.8776689,31.4437117 79.7617446,31.0366803" id="Fill-20" fill="#47474A"></path>
                        <path d="M155.242289,32.0365923 C153.912678,32.0365923 152.834915,30.9588295 152.834915,29.6292183 C152.834915,28.2996072 153.912678,27.2218443 155.242289,27.2218443 C156.571901,27.2218443 157.649663,28.2996072 157.649663,29.6292183 C157.670404,30.938089 156.625604,32.0158519 155.316733,32.0365923 C155.291918,32.0369627 155.267104,32.0369627 155.242289,32.0365923 Z M155.242289,27.4811 C154.035639,27.4607299 153.040838,28.422198 153.020468,29.628848 C152.999728,30.8354979 153.961566,31.8302989 155.168216,31.850669 C156.374866,31.8714094 157.369667,30.9095709 157.390037,29.702921 C157.390408,29.690699 157.390408,29.6784769 157.390408,29.6662548 C157.410778,28.479975 156.465976,27.5018404 155.279696,27.4814704 C155.267104,27.4811 155.254511,27.4811 155.242289,27.4811 Z M155.834874,31.1847523 L155.204883,29.8514375 L154.723778,29.8514375 L154.723778,31.1847523 L154.353413,31.1847523 L154.353413,28.1847939 L155.242289,28.1847939 C155.908947,28.1847939 156.168202,28.4810861 156.168202,29.036634 C156.214128,29.4214434 155.955983,29.7766237 155.575248,29.8514375 L156.205239,31.2217888 L155.834874,31.1847523 Z M154.723778,29.5551453 L155.242289,29.5551453 C155.649691,29.5551453 155.834874,29.4069992 155.834874,29.036634 C155.834874,28.6662687 155.686728,28.5181226 155.204883,28.5181226 L154.723778,28.5181226 L154.723778,29.5551453 Z" id="Fill-22" fill="#47474A"></path>
                        <path d="M171.167994,15.5924132 L167.649525,24.8145074 L174.649057,24.8145074 L171.167994,15.5924132 Z M177.204947,31.6292276 L175.130902,26.1848587 L167.05657,26.1848587 L164.982895,31.6292276 L163.094032,31.6292276 L170.4643,13.5924409 L171.908725,13.5924409 L179.09344,31.6292276 L177.204947,31.6292276 Z" id="Fill-24" fill="#47474A"></path>
                        <path d="M182.723463,29.0367821 C182.723463,29.7401057 182.834573,30.518243 183.723079,30.518243 C184.612326,30.518243 184.945655,30.0738047 185.42713,29.7401057 L185.42713,31.2589735 C184.828619,31.6648938 184.111963,31.8604466 183.390121,31.8145213 C182.945683,31.8145213 181.834587,31.7771144 181.464222,30.7034256 C181.315335,30.0475088 181.253114,29.3752959 181.279039,28.7034534 L181.279039,20.740601 L178.723149,20.740601 L178.723149,19.4443227 L181.279039,19.4443227 L181.279039,14.2592095 L182.723463,14.2592095 L182.723463,19.4443227 L185.389723,19.4443227 L185.389723,20.740601 L182.723463,20.740601 L182.723463,29.0367821 Z" id="Fill-26" fill="#47474A"></path>
                        <mask id="mask-4" fill="white">
                            <use xlink:href="#path-3"></use>
                        </mask>
                        <g id="Clip-29"></g>
                        <polygon id="Fill-28" fill="#47474A" mask="url(#mask-4)" points="187.167772 31.6291906 188.68627 31.6291906 188.68627 13.5924039 187.167772 13.5924039"></polygon>
                        <path d="M199.389899,25.1848356 L198.611761,25.4070547 C194.463671,26.5181504 192.685918,26.7774061 192.685918,28.5551592 C192.685918,29.4069992 193.352575,30.5921679 195.130699,30.5921679 C196.908452,30.5921679 198.426579,29.7032914 199.05657,28.2959035 C199.278419,27.7773922 199.389899,27.2588809 199.389899,26.1477852 L199.389899,25.1848356 Z M202.352821,31.6291906 C200.315812,31.6291906 199.389899,31.1106792 199.389899,29.4069992 C199.093236,30.3329123 197.723255,31.8884462 195.056626,31.8884462 C192.389996,31.8884462 191.241864,30.2958757 191.241864,28.5551592 C191.241864,26.1107486 193.315909,25.2589086 197.35289,24.3329955 L199.389899,23.8885573 L199.389899,22.9626442 C199.389899,21.7774755 198.796944,20.4811972 196.538087,20.4811972 C194.278488,20.4811972 193.241466,21.4441468 193.241466,23.4070825 L191.574822,23.1107903 C191.871114,20.6293433 193.537758,19.1108458 196.352904,19.1108458 C198.463986,19.1108458 200.833953,19.7404667 200.833953,22.7774616 L200.833953,28.1477574 C200.833953,29.7773644 200.87136,30.4069853 202.389857,30.4069853 L202.649113,30.4069853 L202.649113,31.592154 L202.352821,31.6291906 Z" id="Fill-30" fill="#47474A" mask="url(#mask-4)"></path>
                        <path d="M204.722936,28.1477574 C204.945525,28.9995974 205.834032,30.5551314 208.130296,30.5551314 C210.42656,30.5551314 211.241734,29.2588531 211.241734,28.1847939 C211.241734,27.1107348 210.611743,26.4070408 208.611771,25.9996391 L207.167717,25.7033469 C205.278484,25.2959451 203.982205,24.4441051 203.982205,22.666352 C203.964058,21.7304391 204.340719,20.8297108 205.019228,20.184905 C205.871438,19.407138 207.278456,19.1478823 208.352515,19.1478823 C208.72288,19.1478823 210.204341,19.1478823 211.352473,19.9256493 C212.022835,20.3941613 212.497272,21.0926702 212.685788,21.888585 L211.241734,22.2589503 C210.945072,20.8515624 209.500647,20.4441606 208.278812,20.4441606 C205.796995,20.4441606 205.463666,21.7404389 205.463666,22.4811694 C205.463666,23.9255938 206.982534,24.2589225 208.019186,24.4441051 L209.315465,24.7033608 C211.463583,25.1477991 212.685788,26.3700043 212.685788,28.258867 C212.685788,30.1477296 211.574693,31.9254827 208.130296,31.9254827 C207.093273,31.9254827 204.537753,31.7773367 203.241475,28.6662687 L204.722936,28.1477574 Z" id="Fill-31" fill="#47474A" mask="url(#mask-4)"></path>
                    </g>
                </g>
            </g>
        </g>
    </g>
</svg>